<svg preserveAspectRatio="none" width="100%" height="100%" overflow="visible" style="display: block;" viewBox="0 0 24 24" fill="none" xmlns="http://www.w3.org/2000/svg">
<g id="mage:box-3d-fill">
<path id="Vector" d="M21.22 6.894C20.8849 6.31985 20.4013 5.8466 19.82 5.524L13.82 2.214C13.2621 1.91378 12.6385 1.75664 12.005 1.75664C11.3715 1.75664 10.7479 1.91378 10.19 2.214L4.19 5.524C3.60873 5.8466 3.12512 6.31985 2.79 6.894C2.44999 7.46949 2.27043 8.12558 2.27 8.794V15.204C2.27467 15.8697 2.45458 16.5223 2.79164 17.0964C3.12869 17.6704 3.61099 18.1456 4.19 18.474L10.19 21.774C10.7453 22.0822 11.3699 22.2439 12.005 22.2439C12.6401 22.2439 13.2647 22.0822 13.82 21.774L19.82 18.464C20.4005 18.1407 20.8838 17.6678 21.2197 17.0945C21.5556 16.5212 21.7318 15.8684 21.73 15.204V8.844C21.7469 8.15895 21.5702 7.48304 21.22 6.894ZM20.22 15.204C20.224 15.6017 20.1201 15.9931 19.9194 16.3365C19.7186 16.6798 19.4285 16.9624 19.08 17.154L13.08 20.464C12.9747 20.5233 12.8647 20.57 12.75 20.604V12.424L20.05 8.034C20.142 8.276 20.186 8.534 20.18 8.794L20.22 15.204Z" fill="var(--fill-0, #B7FE02)"/>
</g>
</svg>
